<svg id="Capa_1" enable-background="new 0 0 511.925 511.925" height="512" viewBox="0 0 511.925 511.925" width="512" xmlns="http://www.w3.org/2000/svg"><g><path d="m267.412 82.702c-.76.67-1.56 1.31-2.39 1.91 1.05 3.16 1.56 6.44 1.56 9.7 0 9.57-4.42 19-12.75 25.06-5.57 4.04-12.04 5.96-18.44 5.91-6.43-.06-12.78-2.11-18.08-6.01-5.37 3.95-11.83 6.01-18.35 6.01-4.41 0-8.84-.94-12.98-2.86-1.79-.83-3.53-1.85-5.19-3.05-11.17-8.12-15.31-22.32-11.19-34.76-8.07-5.8-12.89-15.2-12.89-25.13 0-3.17.49-6.39 1.52-9.57 4.26-13.14 16.48-21.46 29.59-21.39 2-6.24 5.92-11.63 11.06-15.45 5.15-3.83 11.52-6.09 18.43-6.09 8.29 0 15.82 3.26 21.37 8.57 3.7 3.54 6.52 7.98 8.12 12.97 13.11-.07 25.33 8.25 29.59 21.39 3.94 12.1 0 24.881-8.98 32.79z" fill="#ff9fb6"/><path d="m267.412 82.702c-.76.67-1.56 1.31-2.39 1.91 1.05 3.16 1.56 6.44 1.56 9.7 0 9.57-4.42 19-12.75 25.06-5.57 4.04-12.04 5.96-18.44 5.91-7.39-9.63-11.09-21.59-10.41-33.72-1.83-2.26-3.46-4.66-4.87-7.18-4.22-7.53-6.51-16.1-6.51-24.91 0-1.85.1-3.69.31-5.52.37-3.46 1.1-6.89 2.19-10.22 3.95-12.17 12.12-22.02 22.58-28.18 3.7 3.54 6.52 7.98 8.12 12.97 13.11-.07 25.33 8.25 29.59 21.39 3.94 12.1 0 24.881-8.98 32.79z" fill="#f77ca9"/><path d="m344.473 82.562c-.81.72-1.66 1.41-2.55 2.05 1.05 3.16 1.56 6.44 1.56 9.7 0 9.57-4.42 19-12.76 25.06-1.66 1.2-3.39 2.22-5.18 3.05-10.28 4.77-22.34 3.47-31.33-3.15-5.37 3.95-11.84 6.01-18.36 6.01-4.2 0-8.43-.85-12.4-2.61-1.99-.87-3.92-1.97-5.76-3.3-11.17-8.12-15.31-22.32-11.2-34.76-.83-.6-1.63-1.24-2.39-1.91-6.62-5.84-10.5-14.33-10.5-23.23 0-3.17.49-6.39 1.52-9.56 4.27-13.14 16.49-21.46 29.6-21.39 1.99-6.24 5.91-11.63 11.06-15.45 5.15-3.83 11.52-6.09 18.43-6.09 13.81 0 25.5 9.05 29.48 21.54 13.11-.07 25.33 8.25 29.6 21.39 3.909 12.03.049 24.72-8.82 32.65z" fill="#ff9fb6"/><path d="m344.473 82.562c-3.57-.79-7.28-1.2-11.06-1.2-11.03 0-21.53 3.47-30.3 9.99-1.87 1.38-3.68 2.93-5.37 4.6-1.095 1.07-2.126 2.203-3.117 3.369-9.458-11.172-23.499-17.959-38.863-17.959-3.99 0-7.9.46-11.66 1.34.76.67 1.56 1.31 2.39 1.91-4.11 12.44.03 26.64 11.2 34.76 1.835 1.333 3.772 2.415 5.767 3.291-.002.003-.005.006-.007.009.088.039.177.071.265.109.301.129.603.254.906.373.504.199 1.012.383 1.523.554.187.062.373.125.561.183.591.184 1.186.346 1.784.493.193.047.386.093.58.137.674.152 1.351.289 2.03.395.009.001.019.004.028.005.697.108 1.396.182 2.095.241.175.015.35.028.526.04.701.048 1.402.08 2.102.08 6.52 0 12.99-2.06 18.36-6.01 8.99 6.62 21.05 7.92 31.33 3.15 1.79-.83 3.52-1.85 5.18-3.05 8.34-6.06 12.76-15.49 12.76-25.06 0-3.26-.51-6.54-1.56-9.7.889-.64 1.739-1.33 2.55-2.05z" fill="#f77ca9"/><path d="m265.023 84.613c1.05 3.16 1.56 6.44 1.56 9.7 0 9.57-4.42 19-12.75 25.06-11.18 8.11-25.96 7.67-36.52-.1-5.37 3.95-11.83 6.01-18.35 6.01-4.41 0-8.84-.94-12.98-2.86 6.79-8.69 16.26-14.97 26.99-17.81 9.21-14.29 25.13-23.25 42.79-23.25 3.99 0 7.89.46 11.65 1.34-.761.669-1.56 1.309-2.39 1.91z" fill="#f77ca9"/><path d="m286.823 379.423h-62.124l-62.125-186.374h186.374z" fill="#bed9fd"/><path d="m247.258 348.123-41.257-123.774 49.76-45.328 49.76 45.328-41.257 123.774z" fill="#edf7fc"/><path d="m224.699 379.423h62.124l31.062 125h-124.249z" fill="#bed9fd"/><path d="m233.666 473.123 15.506-62.401h13.178l15.506 62.401z" fill="#edf7fc"/><path d="m348.951 358.925v41c0 20.48-20.06 34.94-39.49 28.46l-23.48-7.83-30.22-10.07v-62.12l30.22-10.07 23.48-7.83c19.43-6.48 39.49 7.98 39.49 28.46z" fill="#97da7b"/><path d="m306.821 379.425c0 16.85-8.21 31.83-20.84 41.13l-30.22-10.07v-62.12l30.22-10.07c12.63 9.3 20.84 24.27 20.84 41.13z" fill="#80d261"/><circle cx="217.313" cy="69.108" fill="#ffcfda" r="15.531"/><path d="m232.842 69.113c0 7.62-5.49 13.96-12.73 15.27-4.22-7.53-6.51-16.1-6.51-24.91 0-1.85.1-3.69.31-5.52 1.09-.25 2.23-.38 3.4-.38 8.58-.001 15.53 6.959 15.53 15.54z" fill="#ff9fb6"/><circle cx="294.209" cy="69.108" fill="#ffcfda" r="15.531"/><path d="m381.132 178.993c1.05 3.16 1.56 6.44 1.56 9.69 0 9.58-4.43 19.01-12.76 25.07-11.17 8.11-25.95 7.67-36.52-.1-5.37 3.95-11.83 6.01-18.35 6.01-.16 0-.31 0-.47-.01-6.16-.09-12.34-2.01-17.69-5.9-11.17-8.12-15.32-22.31-11.2-34.76-8.07-5.8-12.89-15.2-12.89-25.13 0-3.17.49-6.39 1.52-9.57 4.27-13.13 16.49-21.46 29.6-21.39 1.55-4.86 4.27-9.21 7.83-12.69 1.01-1 2.08-1.92 3.22-2.76 5.15-3.83 11.52-6.09 18.43-6.09 13.81 0 25.51 9.05 29.49 21.54 13.11-.07 25.33 8.26 29.6 21.39s-.729 27.049-11.37 34.7z" fill="#ffcfda"/><path d="m225.812 178.993c1.05 3.16 1.56 6.44 1.56 9.7 0 9.57-4.42 19-12.75 25.06-5.35 3.89-11.53 5.81-17.69 5.9-6.68.1-13.33-1.95-18.83-6-5.37 3.95-11.83 6.01-18.35 6.01-6.31 0-12.67-1.92-18.16-5.91-11.18-8.12-15.32-22.31-11.2-34.76-8.07-5.8-12.89-15.2-12.89-25.13 0-3.17.49-6.39 1.52-9.57 4.27-13.13 16.49-21.46 29.6-21.39 1.99-6.24 5.91-11.63 11.05-15.45 5.15-3.83 11.53-6.09 18.43-6.09 8.43 0 16.08 3.37 21.66 8.86 3.56 3.48 6.28 7.82 7.83 12.68 13.11-.07 25.33 8.26 29.6 21.39 4.26 13.13-.73 27.049-11.38 34.7z" fill="#ffcfda"/><path d="m237.192 144.293c4.26 13.13-.73 27.05-11.38 34.7 1.05 3.16 1.56 6.44 1.56 9.7 0 9.57-4.42 19-12.75 25.06-5.35 3.89-11.53 5.81-17.69 5.9-7.38-9.61-11.07-21.55-10.4-33.67-10.73-13.17-14.33-31.08-8.88-47.87 3.9-11.98 11.88-21.73 22.11-27.89 3.56 3.48 6.28 7.82 7.83 12.68 13.11-.071 25.33 8.26 29.6 21.39z" fill="#ff9fb6"/><path d="m324.993 185.983c.67 12.12-3.03 24.06-10.4 33.67-6.16-.09-12.34-2.01-17.69-5.9-11.17-8.12-15.32-22.31-11.2-34.76-8.07-5.8-12.89-15.2-12.89-25.13 0-3.17.49-6.39 1.52-9.57 4.27-13.13 16.49-21.46 29.6-21.39 1.55-4.86 4.27-9.21 7.83-12.69 10.23 6.17 18.21 15.92 22.1 27.9 5.459 16.789 1.86 34.699-8.87 47.87z" fill="#ff9fb6"/><path d="m314.845 144.292c-4.268-13.135-16.487-21.46-29.596-21.389-3.983-12.49-15.677-21.538-29.488-21.538-13.811 0-25.504 9.048-29.488 21.538-13.11-.072-25.329 8.254-29.596 21.389-4.268 13.135.724 27.052 11.372 34.7-4.119 12.446.023 26.639 11.196 34.757 11.173 8.118 25.952 7.671 36.516-.093 10.564 7.764 25.343 8.21 36.516.093 11.173-8.118 15.315-22.311 11.196-34.757 10.648-7.647 15.64-21.565 11.372-34.7z" fill="#ffcfda"/><path d="m255.761 348.365v62.12l-30.22 10.07-23.48 7.83c-19.43 6.48-39.49-7.98-39.49-28.46v-41c0-20.48 20.06-34.94 39.49-28.46l23.47 7.83h.01z" fill="#97da7b"/><path d="m202.561 428.215-.5.17c-19.43 6.48-39.49-7.98-39.49-28.46v-41c0-20.48 20.06-34.94 39.49-28.46l.5.17c-11.39 4.06-19.99 14.88-19.99 28.29v41c0 13.41 8.6 24.23 19.99 28.29z" fill="#80d261"/><path d="m255.761 348.365v62.12l-30.22 10.07c-12.63-9.3-20.84-24.28-20.84-41.13s8.2-31.82 20.83-41.13h.01z" fill="#80d261"/><circle cx="255.761" cy="379.423" fill="#ff9fb6" r="31.062"/><g fill="#f77ca9"><path d="m265.761 408.845c-3.14 1.06-6.5 1.64-10 1.64-17.16 0-31.06-13.91-31.06-31.06 0-17.16 13.9-31.06 31.06-31.06 3.5 0 6.86.58 10 1.64-12.25 4.17-21.06 15.76-21.06 29.42 0 13.65 8.81 25.25 21.06 29.42z"/><circle cx="255.761" cy="163.49" r="15.531"/><circle cx="333.417" cy="163.49" r="15.531"/><circle cx="178.105" cy="163.49" r="15.531"/></g><g><path d="m294.209 46.077c-12.699 0-23.031 10.332-23.031 23.031 0 12.7 10.332 23.031 23.031 23.031s23.031-10.332 23.031-23.031-10.332-23.031-23.031-23.031zm0 31.062c-4.429 0-8.031-3.603-8.031-8.031s3.603-8.031 8.031-8.031 8.031 3.603 8.031 8.031-3.602 8.031-8.031 8.031z"/><path d="m399.634 141.977c-4.646-14.294-16.957-24.346-31.525-26.246-3.665-7.681-9.772-13.902-17.326-17.718.369-3.563.224-7.117-.435-10.661 5.425-5.159 9.255-11.824 10.969-19.211.937-4.035-1.575-8.064-5.61-9.001-4.035-.938-8.064 1.576-9.001 5.611-1.291 5.564-4.545 10.457-9.161 13.774-2.665 1.916-3.775 5.341-2.74 8.455.743 2.24 1.127 4.586 1.163 6.979-16.172-1.069-31.597 8.247-38.021 23.537-2.406-.825-4.908-1.429-7.486-1.765-6.847-14.397-22.204-23.055-38.017-21.708.029-2.383.419-4.756 1.178-7.048 1.031-3.114-.081-6.538-2.747-8.451-6.12-4.393-9.773-11.514-9.773-19.047 0-12.488 11.213-23.45 23.62-23.45 3.263 0 6.153-2.11 7.146-5.221 3.886-10.284 11.334-15.724 22.345-16.319 10.247 0 19.227 6.56 22.346 16.322.993 3.11 3.883 5.218 7.145 5.218h.041c5.404-.021 10.725 1.849 14.957 5.289 3.215 2.614 7.938 2.125 10.551-1.088 2.613-3.214 2.126-7.938-1.088-10.551-5.547-4.51-12.236-7.378-19.246-8.315-13.461-28.304-55.618-28.655-69.395-.003-2.501.932-5.003.932-7.504.002-13.457-28.325-55.597-28.63-69.388-.011-31.069 4.041-44.447 44.115-21.456 66-.652 3.52-.8 7.105-.453 10.666-7.553 3.859-13.319 9.764-17.296 17.715-31.065 4.045-44.456 44.102-21.467 65.995-4.761 25.469 18.506 49.053 43.908 44.928l11.819 35.465c2.507 4.36 5.669 5.941 9.486 4.744 3.93-1.31 6.054-5.557 4.744-9.486l-11.184-33.559c5.958 2.628 12.052 3.723 18.281 3.285l35.42 106.25-19.333-6.444-12.844-38.523c-1.31-3.929-5.557-6.053-9.487-4.743s-6.053 5.558-4.743 9.487l9.542 28.618c-22.074-3.065-42.497 14.731-42.497 37.179v41c0 24.469 24.267 42.86 47.851 36.045l-16.559 66.647c-.599 5.468 1.827 8.571 7.278 9.309h124.24c5.453-.738 7.879-3.841 7.278-9.311l-4.45-17.89c-1-4.02-5.074-6.465-9.089-5.468-4.02 1-6.468 5.069-5.468 9.089l2.135 8.58h-105.055l16.531-66.535 18.309-6.103-11.681 47.03c-.598 5.468 1.828 8.571 7.279 9.308h44.18c5.451-.737 7.878-3.84 7.279-9.308l-11.681-47.03 18.309 6.103 6.505 26.183c2.272 4.547 5.301 6.371 9.087 5.471 4.02-.999 6.469-5.067 5.47-9.087l-4.22-16.987c23.584 6.818 47.852-11.577 47.852-36.045v-41c0-22.45-20.424-40.244-42.499-37.179l31.686-95.057c25.411 4.106 48.484-20.171 43.921-44.95 10.672-10.103 14.722-25.471 10.074-39.765zm-234.271-89.743c3.155-9.709 12.102-16.209 22.288-16.209.056 0 .112-.001.169 0 3.259 0 6.146-2.105 7.143-5.211 6.748-21.054 37.362-21.413 44.521-.483-5.841 5.174-9.77 11.25-11.789 18.229-3.122-1.584-6.649-2.483-10.383-2.483-12.699 0-23.031 10.332-23.031 23.031 0 12.7 10.332 23.031 23.031 23.031 7.053 0 13.372-3.19 17.6-8.199.983 1.193 2.031 2.337 3.159 3.41-.674 3.636-.814 7.342-.421 11.021-7.146 3.803-13.007 9.826-16.589 17.358-2.575.336-5.073.94-7.477 1.764-6.283-15.111-21.764-24.6-38.038-23.536.035-2.362.424-4.714 1.176-6.989 1.028-3.112-.083-6.532-2.744-8.444-6.115-4.395-9.767-11.513-9.767-19.04 0-2.449.389-4.892 1.152-7.25zm59.981 16.874c0 4.428-3.603 8.031-8.031 8.031s-8.031-3.603-8.031-8.031 3.603-8.031 8.031-8.031 8.031 3.603 8.031 8.031zm-42.801 138.504c-2.644-1.943-6.243-1.942-8.887.001-9.217 6.048-18.437 6.069-27.659.063-8.296-6.023-11.706-16.602-8.486-26.323 1.03-3.113-.08-6.535-2.743-8.448-17.606-12.653-8.443-42.695 13.854-42.5 3.263 0 6.153-2.11 7.146-5.222 3.035-9.517 12.567-16.318 22.334-16.318 10.254 0 19.233 6.558 22.345 16.317.003.009.017.021.01.026-6.097 3.788-9.611 10.8-11.288 18.087-13.294-8.689-33.989 1.713-34.092 20.195-.071 12.7 10.332 23.031 23.031 23.031 7.259 0 13.741-3.38 17.966-8.644 1.086 1.352 2.264 2.644 3.544 3.856-1.875 10.055.356 20.284 5.983 28.555-7.511 3.212-16.255 2.325-23.058-2.676zm3.594-44.122c0 4.428-3.603 8.031-8.031 8.031s-8.031-3.603-8.031-8.031 3.603-8.031 8.031-8.031 8.031 3.603 8.031 8.031zm26.287 9.411c-8.32-5.975-11.782-16.541-8.614-26.291 3.154-9.708 12.102-16.206 22.291-16.206.058 0 .114.001.173 0 3.263 0 6.153-2.11 7.146-5.221 2.315-7.26 7.879-12.743 14.796-15.078.002 0 .003-.001.005-.001.091-.026.176-.062.265-.091 2.303-.746 4.75-1.148 7.276-1.148 10.251 0 19.229 6.558 22.342 16.317.992 3.111 3.883 5.222 7.146 5.221h.173c10.188 0 19.137 6.499 22.291 16.206 3.168 9.75-.294 20.316-8.614 26.291-2.664 1.913-3.775 5.335-2.745 8.448 3.219 9.726-.191 20.308-8.484 26.333-8.294 6.024-19.411 5.997-27.666-.069-2.961-1.942-5.922-1.942-8.883 0-8.256 6.066-19.375 6.092-27.666.068-8.293-6.025-11.703-16.607-8.484-26.333 1.027-3.111-.084-6.533-2.748-8.446zm2.236 53.704 4.486-4.083c11.441 6.218 25.187 6.223 36.615.003 12.207 6.226 24.414 6.227 36.621.003l4.479 4.077-37.561 112.674-3.539 1.18-3.539-1.18zm-14.972 194.665c-14.868 4.956-29.617-7.073-29.617-21.345v-41c0-14.27 14.75-26.307 29.618-21.345l32.967 10.989c-7.469 5.607-12.839 13.86-14.719 23.354h-22.782c-4.143 0-7.5 3.358-7.5 7.5s3.357 7.5 7.5 7.5h22.782c1.88 9.496 7.252 17.75 14.723 23.357zm43.574 44.355 11.663-46.955c.558-.372 1.115-.372 1.673 0l11.663 46.955zm12.499-62.64c-12.992 0-23.563-10.57-23.563-23.563 0-12.94 10.487-23.474 23.408-23.558.043.001.085-.003.127-.003.009 0 .018-.001.027-.001h.006c.05 0 .099.005.149.004 12.921.084 23.407 10.618 23.407 23.558.001 12.993-10.569 23.563-23.561 23.563zm85.69-44.06v41c0 14.27-14.75 26.306-29.618 21.345l-32.97-10.99c7.471-5.607 12.843-13.861 14.723-23.357h22.782c4.143 0 7.5-3.358 7.5-7.5s-3.357-7.5-7.5-7.5h-22.782c-1.879-9.494-7.25-17.746-14.719-23.354l32.968-10.989c6.946-2.316 29.426 3.345 29.616 21.345zm-45.029-32.019-19.333 6.444 35.428-106.274c6.227.427 12.32-.669 18.278-3.288zm80.333-154.003c-2.665 1.915-3.776 5.341-2.741 8.456 6.426 19.365-13.102 34.906-30.908 29.156-1.83-.73-3.593-1.689-5.239-2.901-2.645-1.945-6.245-1.945-8.89 0-7.452 4.981-15.138 5.874-23.056 2.678 5.629-8.272 7.862-18.503 5.986-28.559 1.28-1.212 2.458-2.503 3.544-3.856 4.225 5.265 10.706 8.644 17.966 8.644 12.699 0 23.031-10.332 23.031-23.031s-10.332-23.031-23.031-23.031c-4.006 0-7.776 1.03-11.061 2.837-1.835-6.908-5.598-12.937-11.288-18.088 2.928-8.994 13.107-16.342 22.353-16.342 9.576 0 19.423 7.188 22.334 16.318.992 3.111 3.883 5.222 7.146 5.222h.168c10.192 0 19.145 6.5 22.3 16.21 3.169 9.745-.293 20.31-8.614 26.287zm-51.37-9.413c0-4.428 3.603-8.031 8.031-8.031s8.031 3.603 8.031 8.031-3.603 8.031-8.031 8.031-8.031-3.603-8.031-8.031z"/><path d="m255.761 186.521c12.699 0 23.031-10.332 23.031-23.031s-10.332-23.031-23.031-23.031-23.031 10.331-23.031 23.031 10.332 23.031 23.031 23.031zm0-31.062c4.429 0 8.031 3.603 8.031 8.031s-3.603 8.031-8.031 8.031-8.031-3.603-8.031-8.031 3.602-8.031 8.031-8.031z"/></g></g></svg>